<mxfile host="app.diagrams.net" modified="2023-04-28T01:48:00.714Z" agent="Mozilla/5.0 (Windows NT 10.0; Win64; x64) AppleWebKit/537.36 (KHTML, like Gecko) Chrome/112.0.0.0 Safari/537.36" version="21.2.3" etag="vmtllZmUmS7mUIeODatt" type="github">
  <diagram name="Page-1" id="j1e2dRHvj7NGTjF8N5j0">
    <mxGraphModel>
      <root>
        <mxCell id="0" />
        <mxCell id="1" parent="0" />
      </root>
    </mxGraphModel>
  </diagram>
</mxfile>
